<svg width="37" height="36" viewBox="0 0 37 36" fill="none" xmlns="http://www.w3.org/2000/svg">
  <rect width="36" height="36" transform="translate(0.25)" fill="white"/>
  <path d="M17.8721 19.089C19.1681 20.232 20.8781 20.934 22.7501 20.934C24.1721 20.934 25.5041 20.529 26.6381 19.818V27.531C26.6381 28.7736 25.6307 29.781 24.3881 29.781H11.0591C9.81641 29.781 8.80905 28.7736 8.80905 27.531V20.736" stroke="#333333" stroke-width="1.5" stroke-miterlimit="10" stroke-linecap="round"/>
  <path d="M26.638 19.818C27.6341 19.1971 28.471 18.3428 29.0727 17.3313M30.103 13.572C30.103 9.51299 26.809 6.21899 22.75 6.21899C18.691 6.21899 15.388 9.51299 15.388 13.572C15.388 15.768 16.351 17.748 17.872 19.089" stroke="#333333" stroke-width="1.5" stroke-miterlimit="10" stroke-linecap="round"/>
  <path d="M26.638 24.5341V25.6319C26.638 25.9831 26.8423 26.3022 27.1613 26.4492L30.2033 27.8515C30.7996 28.1264 31.48 27.6908 31.48 27.0342V22.0339C31.48 21.3773 30.7996 20.9417 30.2033 21.2166L27.1613 22.6189C26.8423 22.7659 26.638 23.085 26.638 23.4362V24.5341Z" fill="#5194FF" stroke="#333333" stroke-width="1.5" stroke-miterlimit="10" stroke-linecap="round"/>
  <path d="M22.7456 14.4719C23.2427 14.4719 23.6456 14.0689 23.6456 13.5719C23.6456 13.0748 23.2427 12.6719 22.7456 12.6719C22.2486 12.6719 21.8456 13.0748 21.8456 13.5719C21.8456 14.0689 22.2486 14.4719 22.7456 14.4719Z" fill="#333333"/>
  <path d="M10.2041 20.934C13.0671 20.934 15.3881 18.6131 15.3881 15.75C15.3881 12.887 13.0671 10.566 10.2041 10.566C7.34101 10.566 5.02005 12.887 5.02005 15.75C5.02005 18.6131 7.34101 20.934 10.2041 20.934Z" stroke="#333333" stroke-width="1.5" stroke-miterlimit="10" stroke-linecap="round"/>
  <path d="M10.2041 16.6771C10.7011 16.6771 11.1041 16.2741 11.1041 15.7771C11.1041 15.28 10.7011 14.8771 10.2041 14.8771C9.70701 14.8771 9.30406 15.28 9.30406 15.7771C9.30406 16.2741 9.70701 16.6771 10.2041 16.6771Z" fill="#333333"/>
  <path d="M11.9861 24.4349H16.8461" stroke="#333333" stroke-width="1.5" stroke-miterlimit="10" stroke-linecap="round"/>
</svg>
