<svg width="36" height="36" viewBox="0 0 36 36" fill="none" xmlns="http://www.w3.org/2000/svg">
  <rect width="36" height="36" fill="white"/>
  <path d="M6.75721 19.4792L11.5036 19.8232L13.5673 22.7811L16.6628 25.2231L16.3532 27.4587L14.4615 30.0015L11.9507 30.623H10.0591L7.85783 29.5224L6.13811 27.4587L5.65659 20.683L6.75721 19.4792Z" fill="#5194FF"/>
  <path d="M29.5183 20.026C30.0823 18.7869 30.3964 17.4098 30.3964 15.959V8.80585C30.3964 6.98292 28.6535 5.66714 26.8594 5.9897C22.665 6.7438 18.4706 6.7438 14.2762 5.9897C12.482 5.66714 10.7392 6.98292 10.7392 8.80585V15.959C10.7392 21.3861 15.1348 25.7817 20.5619 25.7817H20.5736C22.9636 25.7817 25.1535 24.9293 26.8561 23.5117" stroke="#333333" stroke-width="1.5" stroke-miterlimit="10" stroke-linecap="round"/>
  <path d="M16.4462 12.7122H18.5678" stroke="#333333" stroke-width="1.5" stroke-miterlimit="10" stroke-linecap="round"/>
  <path d="M22.5677 12.7122H24.6894" stroke="#333333" stroke-width="1.5" stroke-miterlimit="10" stroke-linecap="round"/>
  <path d="M17.081 18.7604C19.4019 20.964 21.7227 20.964 24.0319 18.7604" stroke="#333333" stroke-width="1.5" stroke-miterlimit="10" stroke-linecap="round"/>
  <path d="M17.0812 25.6712C16.7826 28.5676 14.3366 30.8247 11.361 30.8247H11.3542C8.17681 30.8247 5.60336 28.2512 5.60336 25.0739V20.9031C5.60336 19.8273 6.63185 19.0508 7.69083 19.2403C8.91194 19.4589 10.133 19.5682 11.3542 19.5684" stroke="#333333" stroke-width="1.5" stroke-miterlimit="10" stroke-linecap="round"/>
  <path d="M9.14778 23.7311H10.0821" stroke="#333333" stroke-width="1.5" stroke-miterlimit="10" stroke-linecap="round"/>
  <path d="M9.73042 27.1168C10.7524 26.1464 11.7745 26.1464 12.7913 27.1168" stroke="#333333" stroke-width="1.5" stroke-miterlimit="10" stroke-linecap="round"/>
</svg>
