<svg width="37" height="36" viewBox="0 0 37 36" fill="none" xmlns="http://www.w3.org/2000/svg">
  <rect width="36" height="36" transform="translate(0.75)" fill="white"/>
  <path d="M21.7631 8.68945C26.0624 9.98015 29.1957 13.9679 29.1957 18.6946C29.1957 20.7304 28.6135 22.6298 27.6065 24.2356M15.7369 8.68945C11.4286 9.98015 8.30425 13.9679 8.30425 18.6946C8.30425 24.4626 12.9864 29.1358 18.7544 29.1358C21.1683 29.1358 23.3905 28.3174 25.1586 26.9427" stroke="#333333" stroke-width="1.5" stroke-miterlimit="10" stroke-linecap="round"/>
  <path d="M24.0243 27.7114L25.8904 28.8081C27.2082 29.5826 26.6589 31.6013 25.1304 31.6013H12.3702C10.8416 31.6013 10.2924 29.5826 11.6102 28.8081L13.4762 27.7114" stroke="#333333" stroke-width="1.5" stroke-miterlimit="10" stroke-linecap="round"/>
  <path d="M8.43793 17.0031C8.39343 17.0031 8.34892 17.0031 8.30441 17.0031C7.12053 17.0031 6.15919 17.9644 6.15919 19.1483C6.15919 20.3322 7.12053 21.2846 8.30441 21.2846C8.41123 21.2846 8.51804 21.2757 8.62486 21.2579" stroke="#333333" stroke-width="1.5" stroke-miterlimit="10" stroke-linecap="round"/>
  <path d="M29.0624 17.0031C29.1069 17.0031 29.1514 17.0031 29.1959 17.0031C30.3798 17.0031 31.3411 17.9644 31.3411 19.1483C31.3411 20.3322 30.3798 21.2846 29.1959 21.2846C29.0891 21.2846 28.9823 21.2757 28.8755 21.2579" stroke="#333333" stroke-width="1.5" stroke-miterlimit="10" stroke-linecap="round"/>
  <path d="M15.9106 17.1724V18.7835" stroke="#333333" stroke-width="1.5" stroke-miterlimit="10" stroke-linecap="round"/>
  <path d="M21.5896 17.1722V18.7834" stroke="#333333" stroke-width="1.5" stroke-miterlimit="10" stroke-linecap="round"/>
  <path d="M16.1064 22.0145C17.8689 23.688 19.6313 23.688 21.3849 22.0145" stroke="#333333" stroke-width="1.5" stroke-miterlimit="10" stroke-linecap="round"/>
  <path d="M18.7545 12.3745C20.4309 12.3745 21.7898 11.0156 21.7898 9.33919C21.7898 7.66281 20.4309 6.30383 18.7545 6.30383C17.0781 6.30383 15.7191 7.66281 15.7191 9.33919C15.7191 11.0156 17.0781 12.3745 18.7545 12.3745Z" fill="#FF7262" stroke="#333333" stroke-width="1.5" stroke-miterlimit="10" stroke-linecap="round"/>
  <path d="M16.0574 7.66572C15.8437 7.33637 15.7102 6.9269 15.7102 6.50854C15.7102 5.35137 16.6537 4.39893 17.8198 4.39893" stroke="#333333" stroke-width="1.5" stroke-miterlimit="10" stroke-linecap="round"/>
</svg>
