<svg width="37" height="36" viewBox="0 0 37 36" fill="none" xmlns="http://www.w3.org/2000/svg">
  <rect width="36" height="36" transform="translate(0.25)" fill="white"/>
  <path d="M27.7673 15.8051C27.2234 15.5545 26.6175 15.4148 25.9784 15.4148C23.9342 15.4148 22.1793 13.9781 21.784 11.9821C21.7357 11.7411 21.7068 11.5964 21.7068 11.5964C21.3983 10.5068 20.8486 9.48475 20.1062 8.62658C17.6763 5.82066 13.3854 4.90463 9.89484 7.1513C7.56137 8.64587 6.25 11.2975 6.25 14.0649V27.6982C6.25 29.0299 7.32985 30.1093 8.66157 30.1088L27.8404 30.1011C29.1713 30.1005 30.25 29.0214 30.25 27.6905V19.6864C30.25 19.2569 30.1869 18.8424 30.0695 18.4516" stroke="#333333" stroke-width="1.5" stroke-miterlimit="10" stroke-linecap="round"/>
  <path d="M6.24994 21.2388H30.2499" stroke="#333333" stroke-width="1.5" stroke-miterlimit="10" stroke-linecap="round"/>
  <path d="M12.3155 21.2388H11.6405C11.1079 21.2388 10.6762 21.6705 10.6762 22.203V24.4497C10.6762 24.9822 11.1079 25.4139 11.6405 25.4139H12.3155C12.848 25.4139 13.2797 24.9822 13.2797 24.4497V22.203C13.2797 21.6705 12.848 21.2388 12.3155 21.2388Z" fill="#FFA33F" stroke="#333333" stroke-width="1.5" stroke-miterlimit="10" stroke-linecap="round"/>
  <path d="M11.9875 25.4139V30.1098" stroke="#333333" stroke-width="1.5" stroke-miterlimit="10" stroke-linecap="round"/>
  <path d="M18.5828 21.2388H17.9078C17.3753 21.2388 16.9436 21.6705 16.9436 22.203V24.4497C16.9436 24.9822 17.3753 25.4139 17.9078 25.4139H18.5828C19.1154 25.4139 19.5471 24.9822 19.5471 24.4497V22.203C19.5471 21.6705 19.1154 21.2388 18.5828 21.2388Z" fill="#FFA33F" stroke="#333333" stroke-width="1.5" stroke-miterlimit="10" stroke-linecap="round"/>
  <path d="M18.2552 25.4139V30.1098" stroke="#333333" stroke-width="1.5" stroke-miterlimit="10" stroke-linecap="round"/>
  <path d="M24.8504 21.2388H24.1754C23.6429 21.2388 23.2112 21.6705 23.2112 22.203V24.4497C23.2112 24.9822 23.6429 25.4139 24.1754 25.4139H24.8504C25.3829 25.4139 25.8146 24.9822 25.8146 24.4497V22.203C25.8146 21.6705 25.3829 21.2388 24.8504 21.2388Z" fill="#FFA33F" stroke="#333333" stroke-width="1.5" stroke-miterlimit="10" stroke-linecap="round"/>
  <path d="M24.5226 25.4139V30.1098" stroke="#333333" stroke-width="1.5" stroke-miterlimit="10" stroke-linecap="round"/>
</svg>
