<svg width="37" height="36" viewBox="0 0 37 36" fill="none" xmlns="http://www.w3.org/2000/svg">
  <rect width="36" height="36" transform="translate(0.75)" fill="white"/>
  <path d="M21.1228 12.375L17.6736 8.92578L17.3287 11.0384L17.264 12.9139L18.0401 14.9403L20.3898 16.8158L23.5157 17.7428L25.2618 17.6781L26.1457 17.3979L25.2618 16.514L21.1228 12.375Z" fill="#B070F0"/>
  <path d="M30.3055 12.6645C30.4131 12.1885 30.4699 11.6932 30.4699 11.1847C30.4699 7.49285 27.477 4.5 23.7852 4.5C20.0933 4.5 17.1005 7.49285 17.1005 11.1847C17.1005 14.8766 20.0933 17.8694 23.7852 17.8694C25.4457 17.8694 26.9649 17.2639 28.1339 16.2617" stroke="#333333" stroke-width="1.5" stroke-miterlimit="10" stroke-linecap="round"/>
  <path d="M22.5416 17.7479L22.5517 17.758L13.9718 24.4416C12.9926 25.2044 11.5982 25.117 10.7219 24.2378V24.2378C9.8479 23.3609 9.76292 21.9707 10.5236 20.9939L17.2019 12.4183L17.2222 12.4284" stroke="#333333" stroke-width="1.5" stroke-miterlimit="10" stroke-linecap="round"/>
  <path d="M10.6514 24.6882L10.389 24.9506C9.36233 25.9773 9.36233 27.6419 10.389 28.6686V28.6686C11.4157 29.6953 13.0803 29.6953 14.107 28.6686L18.2898 24.4859C19.1964 23.5792 20.6663 23.5792 21.573 24.4859V24.4859C22.4796 25.3925 22.4796 26.8624 21.573 27.7691L19.4366 29.9054" stroke="#333333" stroke-width="1.5" stroke-miterlimit="10" stroke-linecap="round"/>
  <path d="M17.576 17.3842L16.5243 18.446" stroke="#333333" stroke-width="1.5" stroke-miterlimit="10" stroke-linecap="round"/>
  <path d="M17.5309 8.8457L26.124 17.4388" stroke="#333333" stroke-width="1.5" stroke-miterlimit="10" stroke-linecap="round"/>
</svg>
