<svg width="36" height="36" viewBox="0 0 36 36" fill="none" xmlns="http://www.w3.org/2000/svg">
  <rect width="36" height="36" fill="white"/>
  <path d="M26.6842 18.9946V10.931C26.6842 9.06551 25.8792 7.68115 24.269 6.77788C22.6588 5.87461 20.0374 5.42297 17.9952 5.42297C15.953 5.42297 13.3414 5.87461 11.7312 6.77788C10.121 7.68115 9.31595 9.06551 9.31595 10.931V25.3636H12.2516C14.2054 25.3636 15.1872 24.5094 15.1872 22.8109V11.7851C15.1872 10.6757 16.6501 10.116 17.9952 10.116C19.3403 10.116 20.8032 10.6659 20.8032 11.7851V25.3636H23.7388C25.7024 25.3636 26.6744 24.5094 26.6744 22.8109L26.6754 22.4258" stroke="#333333" stroke-width="1.5" stroke-miterlimit="10" stroke-linecap="round"/>
  <path d="M19.3109 25.0298H15.3443C14.8927 25.0298 14.5196 25.3931 14.5196 25.8447V29.7719C14.5196 30.0959 14.716 30.3905 15.0302 30.5181C15.1283 30.5574 15.2363 30.577 15.3443 30.577C15.5603 30.577 15.7665 30.4985 15.9236 30.3414L19.8901 26.4141C20.3909 25.9232 19.9981 25.0298 19.301 25.0298H19.3109Z" fill="#EB5684" stroke="#333333" stroke-width="1.5" stroke-miterlimit="10"/>
</svg>
