<svg width="37" height="36" viewBox="0 0 37 36" fill="none" xmlns="http://www.w3.org/2000/svg">
  <rect width="36" height="36" transform="translate(0.5)" fill="white"/>
  <path d="M28.3678 24.005C30.1635 22.0515 31.2599 19.445 31.2599 16.5823C31.2599 10.5232 26.348 5.61133 20.2889 5.61133C14.2298 5.61133 9.31793 10.5232 9.31793 16.5823C9.31793 22.6414 14.2298 27.5533 20.2889 27.5533C22.0569 27.5533 23.7272 27.1351 25.2062 26.3923" stroke="#333333" stroke-width="1.5" stroke-miterlimit="10" stroke-linecap="round"/>
  <path d="M20.2889 5.61133V12.6763V27.5533" stroke="#333333" stroke-width="1.5" stroke-miterlimit="10" stroke-linecap="round"/>
  <path d="M9.39893 15.2593C11.6669 14.1883 13.9439 13.4503 16.2299 13.0453C17.5799 12.8023 18.9299 12.6763 20.2889 12.6763C21.7559 12.6763 23.2229 12.8113 24.6899 13.0993C26.8409 13.5043 29.0009 14.2243 31.1789 15.2503" stroke="#333333" stroke-width="1.5" stroke-miterlimit="10" stroke-linecap="round"/>
  <path d="M27.5249 8.33838C25.7879 9.79638 24.6089 11.3354 24.6899 13.0994V13.1174C24.7889 15.1604 24.9869 17.5004 29.9279 21.8294" stroke="#333333" stroke-width="1.5" stroke-miterlimit="10" stroke-linecap="round"/>
  <path d="M13.2329 8.1853C15.0329 9.6793 16.2929 11.2363 16.2299 13.0363V13.1173C16.1309 15.1873 15.9239 17.5723 10.7759 22.0363" stroke="#333333" stroke-width="1.5" stroke-miterlimit="10" stroke-linecap="round"/>
  <path d="M12.0652 27.9946H12.9589C13.6142 27.9946 14.2315 28.2853 14.6755 28.7673C14.7907 28.8922 14.9074 29.0159 15.0262 29.1376C15.4672 29.5876 15.8812 30.1726 16.5202 30.3436C17.4382 30.5866 18.1492 29.8126 18.3292 28.9846C18.5452 28.0306 18.1402 23.2966 17.9782 22.8286C17.4202 21.1366 15.7462 20.7766 14.2522 21.4966C14.1442 21.5506 13.8832 21.7666 13.7662 21.7666H12.0652H10.3642C10.2472 21.7666 9.98616 21.5506 9.87816 21.4966C8.37516 20.7766 6.71016 21.1456 6.15216 22.8286C5.99916 23.2966 5.58516 28.0306 5.80116 28.9846C5.99016 29.8036 6.69216 30.5866 7.61016 30.3436C8.24916 30.1726 8.66316 29.5876 9.10416 29.1376C9.21962 29.0192 9.33323 28.8999 9.44528 28.7794C9.89763 28.293 10.5227 27.9946 11.1869 27.9946H12.0652Z" fill="#FF7262" stroke="#333333" stroke-width="1.5" stroke-miterlimit="10" stroke-linecap="round"/>
  <path d="M8.3728 24.5737H10.263" stroke="#333333" stroke-width="1.5" stroke-miterlimit="10" stroke-linecap="round"/>
  <path d="M9.31411 23.6252V25.5154" stroke="#333333" stroke-width="1.5" stroke-miterlimit="10" stroke-linecap="round"/>
  <path d="M15.4322 24.3002C15.805 24.3002 16.1072 23.998 16.1072 23.6252C16.1072 23.2524 15.805 22.9502 15.4322 22.9502C15.0594 22.9502 14.7572 23.2524 14.7572 23.6252C14.7572 23.998 15.0594 24.3002 15.4322 24.3002Z" fill="#333333"/>
  <path d="M14.0103 25.7671C14.3831 25.7671 14.6853 25.4649 14.6853 25.0921C14.6853 24.7193 14.3831 24.4171 14.0103 24.4171C13.6375 24.4171 13.3353 24.7193 13.3353 25.0921C13.3353 25.4649 13.6375 25.7671 14.0103 25.7671Z" fill="#333333"/>
</svg>
