<svg width="32" height="18" viewBox="0 0 32 18" fill="none" xmlns="http://www.w3.org/2000/svg">
<path d="M9.01953 1.71387H0.428711V13.3662H1.87598C4.92822 13.3662 7.34961 13.292 10.0029 12.9023L9.78027 10.9912C7.41455 11.353 5.35498 11.4551 2.7666 11.4736V8.28223H8.31445V6.42676H2.7666V3.64355H9.01953V1.71387ZM11.3018 17.207H13.6953V0.322266H11.3018V17.207ZM30.5244 0.34082H28.2793V11.6035H30.5244V0.34082ZM15.8105 9.65527L16.9238 11.3252C19.54 10.2026 21.2192 8.71826 22.2119 6.89062H24.791V10.1191H27.0176V0.600586H24.791V4.99805H22.9634C23.251 3.95898 23.3809 2.82715 23.3809 1.60254H16.7197V3.49512H21.0522C21.0059 3.95898 20.9131 4.4043 20.7832 4.83105L16.0146 5.05371L16.293 6.96484L19.9668 6.56592C19.1411 7.78125 17.8145 8.80176 15.8105 9.65527ZM17.9072 15.2959L18.8721 17.1328C21.5811 16.7246 23.5664 15.5278 24.624 13.9136C25.6816 15.5278 27.667 16.7246 30.3945 17.1328L31.2852 15.2959C27.6577 14.8135 25.7837 12.8838 25.793 11.0283V10.6758H23.4551V11.0283C23.4458 12.8838 21.5718 14.8135 17.9072 15.2959Z" fill="#111111"/>
</svg>
