<svg width="30" height="30" viewBox="0 0 30 30" fill="none" xmlns="http://www.w3.org/2000/svg">
<path d="M0 15C0 4.20012 4.20012 0 15 0C25.7999 0 30 4.20012 30 15C30 25.7999 25.7999 30 15 30C4.20012 30 0 25.7999 0 15Z" fill="#8E43E7"/>
<path d="M19.5946 23.0586H19.3211C19.227 23.0586 19.1478 22.9904 19.1346 22.8984C18.9693 21.7177 18.3308 20.2595 16.8745 18.7706C16.7812 18.6761 16.7636 18.5299 16.8358 18.4196C18.1092 16.459 19.2885 13.5154 18.6474 11.5548C18.483 11.0506 18.2121 10.6375 17.8462 10.325C17.7724 10.262 17.7847 10.1474 17.8709 10.1027C18.7855 9.61869 19.3914 8.62962 19.3105 7.51101C19.2147 6.17446 18.1198 5.09348 16.7768 5.00596C15.1929 4.90267 13.8711 6.15608 13.8711 7.7097C13.8711 8.50883 14.2203 9.22831 14.7752 9.72372C14.8464 9.78762 14.8324 9.90053 14.7471 9.94429C14.6239 10.0082 14.5043 10.0817 14.3882 10.1657C13.0559 11.1347 12.6311 13.1671 12.5915 14.2148C12.5739 14.6822 12.6065 15.1408 12.6909 15.5916C12.858 16.4949 13.2291 17.3684 13.8113 18.2227C13.9872 18.4809 14.1842 18.726 14.397 18.9562L15.4779 20.1308C16.5719 21.3483 17.1603 22.5448 17.2456 23.6424C17.2491 23.6827 17.2535 23.7238 17.2553 23.7641C17.2869 24.4573 17.8568 25 18.5551 25H19.628C20.1724 25 20.613 24.5562 20.6033 24.0109C20.5936 23.4761 20.1328 23.0578 19.5955 23.0578L19.5946 23.0586ZM16.5939 6.9412C17.0204 6.9412 17.3669 7.28606 17.3669 7.71057C17.3669 8.13509 17.0204 8.47995 16.5939 8.47995C16.1674 8.47995 15.8217 8.13509 15.8217 7.71057C15.8217 7.28606 16.1674 6.9412 16.5939 6.9412ZM15.2202 16.817C14.7268 15.9907 14.507 15.1627 14.5404 14.2909C14.5756 13.385 14.9678 12.1509 15.5386 11.7351C15.6388 11.6625 15.7646 11.5951 15.9572 11.5951C16.0416 11.5951 16.1392 11.6082 16.2527 11.6397C16.5411 11.7202 16.6977 11.8699 16.7918 12.157C17.0802 13.0384 16.6018 15.0017 15.5482 16.8126C15.4752 16.9378 15.2941 16.9413 15.2202 16.817Z" fill="white"/>
<path d="M13.062 19.744C13.033 19.7038 12.9776 19.695 12.9354 19.7213C11.3488 20.7147 10.1713 20.1379 9.66558 19.976C9.02534 19.7703 8.34113 20.0784 8.07466 20.6937L7.58041 21.8298C7.3667 22.3217 7.5936 22.8933 8.08785 23.106C8.5821 23.3187 9.15638 23.0928 9.37009 22.6018L9.58291 22.1117C9.61809 22.0303 9.70604 21.9839 9.7931 22.0014C10.8344 22.2071 12.3541 22.4644 14.1604 21.2495C14.2079 21.2171 14.2158 21.1506 14.1772 21.1086C14.0065 20.9204 13.8368 20.7252 13.6688 20.523C13.4542 20.2648 13.252 20.004 13.062 19.7449V19.744Z" fill="white"/>
</svg>
