<?xml version="1.0" encoding="utf-8"?>
<!-- Generator: Adobe Illustrator 24.0.2, SVG Export Plug-In . SVG Version: 6.00 Build 0)  -->
<svg version="1.1" id="Layer_1" xmlns="http://www.w3.org/2000/svg" xmlns:xlink="http://www.w3.org/1999/xlink" x="0px" y="0px"
	 viewBox="0 0 576 512" style="enable-background:new 0 0 576 512;" xml:space="preserve">
<path d="M449.6,511.4h-14c0,0-0.1,0-0.1,0H147.6c-1.4,0-2.6,0-3.8-0.1c-1,0.1-2.1,0.1-3.4,0.1h-14c-36.3,0-65.8-29.5-65.8-65.8
	v-98.3c0-0.9,0-2.1,0.1-3.6v-29.4C29,313.1,4.5,287.7,4.5,255.6c0-16.3,6.1-31.1,17.8-42.7l0.7-0.7L248.3,15.7
	c15.8-15.1,34-15.1,40.1-15.1c14.3,0,27.8,4.7,38.1,13.3l0.6,0.5l224.2,197.1c14.3,12.5,21.4,28.7,20.1,45.8
	c-0.8,30.8-25.4,55.7-56,57.1l0.5,110.1c0,2.7-0.1,5.6-0.4,8.7v12.6c0,30.8-21.3,56.8-50,63.9v1.9l-15,0
	C450,511.4,449.8,511.4,449.6,511.4z M404,449.8l31.5,0.3h14c2.5,0,4.5-2,4.5-4.5v-15.8l0.2-1.7c0.2-1.5,0.2-2.7,0.3-3.7l-0.7-171.4
	h52.1L288.4,62L69.2,253.1h52.9v93.5l-0.1,0.8v98.3c0,2.5,2,4.5,4.5,4.5h13.8c0.3,0,0.6,0,0.9-0.1l2.3-0.2l2.3,0.2
	c0.7,0,1.6,0.1,1.9,0.1H404V449.8z M511.6,258.3L511.6,258.3L511.6,258.3z"/>
</svg>
