<?xml version="1.0" encoding="utf-8"?>
<!-- Generator: Adobe Illustrator 24.0.2, SVG Export Plug-In . SVG Version: 6.00 Build 0)  -->
<svg version="1.1" id="Layer_1" xmlns="http://www.w3.org/2000/svg" xmlns:xlink="http://www.w3.org/1999/xlink" x="0px" y="0px"
	 viewBox="0 0 448 512" style="enable-background:new 0 0 448 512;" xml:space="preserve">
<path d="M407.6,104H39.4C18.2,104,1,86.1,1,64s17.2-40,38.4-40h368.3c21.2,0,38.4,17.9,38.4,40S428.8,104,407.6,104z"/>
<path d="M407.6,296H39.4C18.2,296,1,278.1,1,256c0-22.1,17.2-40,38.4-40h368.3c21.2,0,38.4,17.9,38.4,40
	C446,278.1,428.8,296,407.6,296z"/>
<path d="M407.6,488H39.4C18.2,488,1,470.1,1,448s17.2-40,38.4-40h368.3c21.2,0,38.4,17.9,38.4,40S428.8,488,407.6,488z"/>
</svg>
