<?xml version="1.0" encoding="utf-8"?>
<!-- Generator: Adobe Illustrator 24.0.2, SVG Export Plug-In . SVG Version: 6.00 Build 0)  -->
<svg version="1.1" id="Layer_1" xmlns="http://www.w3.org/2000/svg" xmlns:xlink="http://www.w3.org/1999/xlink" x="0px" y="0px"
	 viewBox="0 0 576 512" style="enable-background:new 0 0 576 512;" xml:space="preserve" fill="#000">
<style type="text/css">
	
</style>
<path class="st0" d="M445.1,507h-14c-0.8,0-1.8,0-3,0c-1.3,0-2.5,0-3.6,0H143.6c-1.4,0-2.6,0-3.8-0.1c-1,0.1-2.1,0.1-3.3,0.1h-14
	c-33.8,0-61.4-27.5-61.4-61.4v-98.2c0-0.8,0-2,0.1-3.5v-33.7h-1.8C28.9,310.3,5,286.4,5,255.9c0-15.2,5.7-28.9,16.5-39.6l0.6-0.6
	l0.7-0.6L247,19.6c14.6-14,31.5-14,37.1-14c13.3,0,25.8,4.3,35.2,12.2l0.5,0.5L543.7,215c13.3,11.6,19.8,26.6,18.6,42.2
	c-0.7,29.4-24.8,53-54.3,53h-1.6l0.5,114.1c0,2.7-0.1,5.4-0.4,8.5v12.8C506.4,479.5,478.9,507,445.1,507z M430.4,454.4L430.4,454.4
	C430.5,454.4,430.5,454.4,430.4,454.4z M430.3,454.4c0.3,0,0.5,0,0.8,0h14c4.8,0,8.8-3.9,8.8-8.8v-15.6l0.2-1.4
	c0.2-1.7,0.3-3,0.3-4.2l-0.7-166.8H508c0.5,0,1.8-0.7,1.8-1.8v-0.6c-0.2-0.2-0.4-0.4-0.7-0.6l0,0L285.9,58.4c-0.3-0.1-1-0.3-1.8-0.3
	c-0.6,0-1.1,0-1.4,0l-0.6,0.5L58.2,253.9c-0.6,0.7-0.6,1-0.6,2c0,1.5,0.7,1.8,1.8,1.8h54.4v88.8l-0.1,0.8c0,0.1,0,0.1,0,0.2v98.2
	c0,4.8,3.9,8.8,8.8,8.8h13.9c0.4,0,0.7-0.1,1.1-0.1l2-0.2l2,0.1c0.8,0.1,1.7,0.1,2.2,0.1h280.9c0.6,0,1.5,0,1.8,0l2.1-0.1
	L430.3,454.4z M286.1,58.5C286.1,58.5,286.1,58.5,286.1,58.5S286.1,58.5,286.1,58.5z"/>
</svg>
