<?xml version="1.0" encoding="utf-8"?>
<!-- Generator: Adobe Illustrator 24.0.2, SVG Export Plug-In . SVG Version: 6.00 Build 0)  -->
<svg version="1.1" id="Layer_1" xmlns="http://www.w3.org/2000/svg" xmlns:xlink="http://www.w3.org/1999/xlink" x="0px" y="0px"
	 viewBox="0 0 512 512" style="enable-background:new 0 0 512 512;" xml:space="preserve">
<path d="M502.6,457.4l-119-119.1c26-35.3,41.4-78.8,41.4-125.8C425,95.3,329.7,0,212.5,0c-0.8,0-1.5,0-2.2,0c-0.8,0-1.5,0-2.3,0
	C93.1,0,0,93.1,0,208c0,0.8,0,1.5,0,2.3c0,0.7,0,1.5,0,2.2C0,329.7,95.3,425,212.5,425c47.1,0,80.3-8.3,115.6-34.3L449,504
	c12.5,12.5,41.1,11.2,53.6-1.3C515.1,490.2,515.1,469.9,502.6,457.4z M212.5,345C139.4,345,80,285.6,80,212.5
	C80,139.4,139.4,80,212.5,80S345,139.4,345,212.5C345,285.6,285.6,345,212.5,345z"/>
</svg>
