<svg width="29" height="29" viewBox="0 0 29 29" fill="none" xmlns="http://www.w3.org/2000/svg">
<path d="M19.8059 24.0109H4.98246C3.95724 24.0109 3.125 23.0822 3.125 21.9364V19.7171C3.125 18.137 3.78838 16.557 5.0307 15.5559C6.41776 14.4463 8.29934 14.2171 9.95175 13.7226C13.0636 12.7938 18.9134 11.6601 18.0208 7.17322C17.8158 6.13594 17.2007 5.23134 16.3564 4.62827C15.7171 4.182 14.9331 3.98901 14.1491 3.98901H14.1009C13.3169 3.98901 12.5329 4.16993 11.8936 4.62827C11.0493 5.23134 10.4342 6.13594 10.2292 7.17322C9.33662 11.6601 15.1864 12.8059 18.2982 13.7226C19.9507 14.2171 21.8443 14.4342 23.2193 15.5559C24.4616 16.557 25.125 18.137 25.125 19.7171V21.9364C25.125 23.0822 24.2928 24.0109 23.2675 24.0109" stroke="#333333" stroke-width="1.5" stroke-miterlimit="10" stroke-linecap="round"/>
</svg>
