<svg width="20" height="20" viewBox="0 0 100 100" fill="none" xmlns="http://www.w3.org/2000/svg">
<g clip-path="url(#clip0_5283_69971)">
<path d="M32.1291 72.9038C33.5313 72.1867 34.3307 71.9875 34.3307 71.9875C34.3307 71.9875 34.6494 70.3051 36.1145 68.2732C37.5797 66.2413 40.1925 63.8585 40.1925 63.8585H40.2516L40.2105 60.3228C40.2105 60.3228 38.9523 58.9926 37.8984 56.5417C36.8433 54.0908 35.9924 50.5179 35.9924 50.5179C35.9924 50.5179 30.029 48.9448 31.5893 43.313C32.1972 41.1205 33.4966 42.2232 35.3421 41.6628L32.647 41.6757C32.647 41.6757 31.3464 37.5231 30.948 34.4926C30.5508 31.4621 31.0585 29.5509 31.0585 29.5509C31.0585 29.5509 28.7695 29.4944 29.6576 27.6013C30.583 25.6323 31.4916 22.8241 32.9568 20.5956C34.1867 18.7217 36.076 17.2334 36.076 17.2334C36.076 17.2334 39.4317 16.5638 42.3581 15.2465C44.5738 14.2492 45.8616 12.6105 49.1543 12.1697C53.1938 11.6273 58.4901 14.8931 62.6876 17.4519C63.6914 18.0637 65.9122 17.9442 66.5651 18.5174C67.7 19.5134 65.5614 20.7614 65.5614 20.7614C65.5614 20.7614 69.0829 24.1055 69.2435 29.1692C69.3836 33.6302 67.5496 39.8121 67.1101 41.2194C67.5997 41.2927 68.0174 41.6294 68.4068 42.6511C69.3129 45.0275 68.9801 46.9091 68.3503 48.1043C67.1576 50.3753 64.5139 50.6722 64.5139 50.6722C64.5139 50.6722 63.5719 54.5728 62.4499 57.0211C61.3266 59.4682 60.0208 60.4642 60.0208 60.4642L60.193 64.2659H60.265C60.265 64.2659 62.9781 66.4649 64.4471 68.4454C65.9161 70.4272 66.0253 71.9206 66.0253 71.9206C66.0253 71.9206 66.9456 72.2908 68.4621 73.2046C69.6792 73.9371 71.2664 75.1517 73.1596 75.8045C76.2775 76.8777 79.9378 78.0562 83.4991 79.4353C85.2843 80.1267 87.0784 80.8285 88.6541 81.7178C95.7434 73.0876 100 62.0412 100 50.0013C100 22.3859 77.6141 0 50 0C22.3859 0 0 22.3859 0 50C0 62.1106 4.30547 73.2148 11.4693 81.8669C15.7657 79.1397 21.4554 77.4715 26.1271 75.8097C28.4662 74.9769 30.6357 73.6698 32.1291 72.9051V72.9038Z" fill="white"/>
<path d="M37.797 39.8854C39.487 37.8817 40.8018 28.0511 43.7809 27.0229C45.7975 26.3276 50.8471 25.2198 54.0408 26.5616C55.2656 27.0769 56.2501 30.8233 57.6021 33.6598C58.2165 34.9489 58.9529 36.1004 59.6726 37.0746C59.6829 37.081 59.6906 37.0875 59.6945 37.09C59.7922 37.1594 59.8564 37.2571 59.8898 37.3638C60.7214 38.4537 61.5131 39.2993 62.049 39.8353C64.4845 42.2656 65.9869 41.0549 67.1076 41.2207C67.5459 39.8134 69.3811 33.6315 69.2411 29.1705C69.0804 24.1068 65.5589 20.7627 65.5589 20.7627C65.5589 20.7627 67.6975 19.516 66.5627 18.5187C65.9085 17.9455 63.6889 18.065 62.6852 17.4532C58.4877 14.8944 53.1913 11.6286 49.1519 12.171C45.8591 12.6118 44.5714 14.2518 42.3556 15.2478C39.4292 16.5639 36.0735 17.2348 36.0735 17.2348C36.0735 17.2348 34.1842 18.723 32.9543 20.5969C31.4892 22.8254 30.5805 25.6336 29.6552 27.6026C28.7671 29.4944 31.056 29.5523 31.056 29.5523C31.056 29.5523 30.5484 31.4621 30.9455 34.4939C31.3439 37.5244 32.6728 42.4468 32.6728 42.4468L35.3397 41.6641C36.0748 41.4405 36.8961 40.9534 37.7957 39.8879L37.797 39.8854Z" fill="#441D39"/>
<path d="M73.1582 75.8032C71.2651 75.1504 69.6779 73.9358 68.4608 73.2033C66.9442 72.2908 66.024 71.9193 66.024 71.9193C66.024 71.9193 65.9147 70.4259 64.4457 68.4441C62.9767 66.4623 60.2637 64.2659 60.2637 64.2659H60.1917L60.3099 66.8761L60.6312 66.8813C60.6312 66.8813 62.6169 68.989 61.7661 77.9868C61.7031 78.6436 61.2327 85.1789 61.1453 85.8421C60.5785 90.0691 59.4925 94.9594 58.3962 99.2957C70.5248 97.2445 81.169 90.8274 88.6541 81.7152C87.0771 80.8259 85.2829 80.1228 83.4991 79.4327C79.9377 78.0537 76.2774 76.8751 73.1595 75.802L73.1582 75.8032Z" fill="#1C2642"/>
<path d="M42.326 99.414C41.0524 93.8824 39.7003 87.3677 39.0693 82.2435C38.2236 75.3818 38.3059 72.0672 38.7698 69.7281C39.0577 68.2809 39.717 66.5575 39.717 66.5575L40.2825 66.5665L40.2504 63.8585H40.1913C40.1913 63.8585 37.5784 66.24 36.1133 68.272C34.6482 70.3052 34.3294 71.9862 34.3294 71.9862C34.3294 71.9862 33.53 72.1854 32.1278 72.9026C30.6344 73.6673 28.465 74.9743 26.1259 75.8072C21.4541 77.4702 15.7658 79.1384 11.468 81.8644C19.0958 91.0768 29.9635 97.508 42.3247 99.4114L42.326 99.414Z" fill="#1C2642"/>
<path d="M61.7662 77.9881C62.617 68.9903 60.6313 66.8825 60.6313 66.8825L60.31 66.8774L60.3434 67.6074C60.3434 67.6074 59.5787 68.9556 57.7859 70.4657C55.993 71.9745 53.1719 73.644 53.1719 73.644L50.1131 79.7758L47.1893 72.9089C47.1893 72.9089 43.9595 71.224 42.2746 69.7228C40.591 68.2217 40.2915 67.1807 40.2915 67.1807L40.2838 66.5689L39.7183 66.5599C39.7183 66.5599 39.059 68.2821 38.7711 69.7306C38.3059 72.0684 38.2249 75.3842 39.0706 82.246C39.7016 87.3701 41.0536 93.8849 42.3273 99.4164C44.8283 99.802 47.391 100.003 50.0013 100.003C52.8622 100.003 55.6665 99.7609 58.3963 99.2995C59.4926 94.9619 60.5799 90.0729 61.1454 85.8459C61.2328 85.1827 61.7032 78.6474 61.7662 77.9906V77.9881Z" fill="white"/>
<path d="M40.2092 60.3215L40.2504 63.8597L40.2092 60.3215Z" fill="#FFDDC0"/>
<path d="M68.4043 42.6499C68.0149 41.6282 67.5972 41.2914 67.1075 41.2182C65.9868 41.0511 64.4831 42.2631 62.0489 39.8327C61.513 39.2968 60.7213 38.4511 59.8897 37.3612C59.9373 37.5129 59.9167 37.6851 59.8178 37.8239C59.7149 37.9692 59.553 38.0463 59.3872 38.0463C59.2831 38.0463 59.1764 38.0154 59.0839 37.9499C59.0081 37.8985 57.3643 36.7906 55.1177 37.8329C54.8555 37.9563 54.5394 37.8406 54.416 37.5772C54.2926 37.3124 54.4083 36.9988 54.673 36.8754C57.3823 35.6146 59.4335 36.9114 59.6712 37.0734C58.9515 36.0992 58.2151 34.9476 57.6008 33.6585C56.2487 30.8221 55.2642 27.0757 54.0394 26.5603C50.8457 25.2185 45.7961 26.3264 43.7796 27.0217C40.8004 28.0499 39.4857 37.8805 37.7956 39.8841C36.8959 40.9496 36.0747 41.4367 35.3395 41.6603C33.4953 42.2206 32.1946 41.1179 31.5867 43.3105C30.0265 48.9423 35.9899 50.5154 35.9899 50.5154C35.9899 50.5154 36.8407 54.0883 37.8958 56.5392C38.9497 58.9914 40.2079 60.3203 40.2079 60.3203C40.2079 60.3203 42.3324 62.3869 45.1033 63.9562C46.7497 64.8893 48.6235 65.6463 50.4164 65.6912C51.8957 65.7285 53.623 65.0178 55.1537 64.1618C57.3951 62.9062 59.215 61.3344 59.215 61.3344C59.215 61.3344 58.1611 62.6543 56.5687 64.1901C55.6806 65.0473 54.6242 65.9714 53.4894 66.7708C52.1013 67.7489 50.5963 68.5393 49.1402 68.7912C46.6764 69.2153 44.0109 67.8093 42.2501 66.5973C41.0446 65.7671 40.2632 65.0268 40.2632 65.0268L40.2491 63.8585L40.2812 66.5665L40.2889 67.1782C40.2889 67.1782 40.5884 68.2205 42.272 69.7204C43.9569 71.2215 47.1867 72.9064 47.1867 72.9064L50.1105 79.7733L53.1693 73.6416C53.1693 73.6416 55.9904 71.9721 57.7833 70.4632C59.5761 68.9531 60.3408 67.6049 60.3408 67.6049L60.3074 66.8749L60.1892 64.2634L60.017 60.4617C60.017 60.4617 61.3227 59.4657 62.446 57.0186C63.5693 54.5703 64.5101 50.6696 64.5101 50.6696C64.5101 50.6696 67.1538 50.3715 68.3464 48.1018C68.9749 46.9052 69.3091 45.025 68.403 42.6486L68.4043 42.6499ZM56.3669 41.7682C57.0969 41.7682 57.6894 42.5201 57.6894 43.448C57.6894 44.3759 57.0982 45.1278 56.3669 45.1278C55.6357 45.1278 55.0445 44.3759 55.0445 43.448C55.0445 42.5201 55.6369 41.7682 56.3669 41.7682ZM40.3725 37.4088C40.4586 37.3433 42.5329 35.8306 45.3861 37.0721C45.6534 37.1877 45.7768 37.4988 45.6598 37.7674C45.5442 38.0347 45.2318 38.1568 44.9658 38.0411C42.6897 37.0528 41.0703 38.2069 41.0022 38.2558C40.9084 38.3252 40.7979 38.3586 40.6899 38.3586C40.528 38.3586 40.3686 38.2853 40.2658 38.1452C40.0936 37.9126 40.1398 37.5836 40.3725 37.4101V37.4088ZM44.3965 43.4596C44.3965 44.3875 43.804 45.1394 43.074 45.1394C42.344 45.1394 41.7502 44.3875 41.7502 43.4596C41.7502 42.5317 42.344 41.7798 43.074 41.7798C43.804 41.7798 44.3965 42.5317 44.3965 43.4596ZM55.8747 54.6859C55.8156 54.8851 54.3839 59.4914 50.374 59.4914C50.2982 59.4914 50.2223 59.4888 50.1427 59.4862C45.7896 59.2973 44.4427 54.7451 44.4299 54.6988C44.381 54.5266 44.4222 54.3402 44.5404 54.2066C44.6586 54.0716 44.8399 54.0099 45.0146 54.0318C45.0404 54.0356 47.5491 54.4045 50.0681 54.4045H50.1144C52.6527 54.3981 55.2642 54.0151 55.2899 54.0112C55.4737 53.9868 55.6498 54.0523 55.7668 54.1886C55.885 54.3248 55.9248 54.5124 55.8734 54.6859H55.8747ZM63.7222 42.4096L61.7057 43.7989C61.2906 46.2729 59.1404 48.3691 56.8168 48.5221C56.7037 48.5298 56.5931 48.5336 56.4839 48.5336C55.3311 48.5336 54.2978 48.1339 53.4778 47.3654C52.7902 46.7202 52.3519 45.9246 52.1 45.1496C52.0833 45.1406 52.0679 45.1329 52.0512 45.1227C51.3469 44.66 50.6979 44.4942 50.1414 44.4813C49.9884 45.2216 49.9255 45.9799 50.0733 46.5942C50.2095 47.1597 50.5912 47.4836 50.996 47.828C51.4112 48.1802 51.8803 48.5799 51.9304 49.2328C51.9754 49.8368 51.6515 50.5039 50.8791 51.3945C50.775 51.5153 50.6272 51.5757 50.4807 51.5757C50.3573 51.5757 50.2352 51.5333 50.1349 51.4459C49.9139 51.2544 49.8908 50.9215 50.0822 50.7018C50.7673 49.9127 50.8932 49.5104 50.8791 49.3125C50.8637 49.1081 50.6542 48.9205 50.3149 48.6326C49.8471 48.2354 49.2661 47.7419 49.0489 46.8423C48.8857 46.1637 48.9153 45.399 49.0361 44.6574C48.5554 44.8271 48.2637 45.0584 48.2354 45.0815C48.1403 45.1599 48.0246 45.1959 47.9102 45.1985C47.6609 45.9915 47.2201 46.8101 46.5145 47.4707C45.6945 48.238 44.6612 48.639 43.5097 48.639C43.3991 48.639 43.2886 48.6351 43.1768 48.6274C40.8107 48.4719 38.6258 46.3025 38.2673 43.7706L36.4101 42.3183C36.2045 42.1577 36.1518 41.8775 36.27 41.6551C36.2842 41.6282 36.2996 41.6025 36.3189 41.5768C36.4975 41.3467 36.8304 41.3081 37.0592 41.4855L37.2687 41.65L39.0847 43.0702C39.2209 43.1768 39.289 43.3362 39.2852 43.4956C39.2903 43.5149 39.2954 43.5328 39.298 43.5521C39.5551 45.6085 41.3608 47.4489 43.2423 47.5736C44.2435 47.6417 45.0995 47.3448 45.7883 46.6996C46.5929 45.9465 47.1108 44.7178 47.1108 43.5688C47.1108 43.2771 47.3473 43.0406 47.6391 43.0406C47.9308 43.0406 48.1673 43.2771 48.1673 43.5688C48.1673 43.6691 48.1621 43.7745 48.1557 43.8811C48.4719 43.7205 48.8562 43.5804 49.2906 43.4994C49.5232 42.6705 49.8124 41.9675 49.9794 41.5896C50.0604 41.4058 50.1144 41.2991 50.117 41.2927C50.2468 41.0331 50.5616 40.9251 50.8238 41.0562C51.0269 41.1578 51.1336 41.3711 51.1117 41.5845C51.1053 41.6462 51.0899 41.7066 51.0603 41.7644C50.9022 42.0806 50.6362 42.7065 50.4087 43.4416C50.8585 43.4789 51.3379 43.5907 51.8314 43.8053C51.8224 43.6871 51.8173 43.5714 51.8173 43.4622C51.8173 43.1704 52.0538 42.9339 52.3455 42.9339C52.6373 42.9339 52.8737 43.1704 52.8737 43.4622C52.8737 44.6111 53.393 45.8398 54.1962 46.5929C54.8851 47.2381 55.7423 47.5311 56.7448 47.4669C58.6251 47.3422 60.4308 45.5018 60.6878 43.4455C60.7097 43.2758 60.8125 43.137 60.95 43.0573C60.9796 43.0226 61.013 42.9892 61.0528 42.9609L63.1195 41.5369C63.1195 41.5369 63.131 41.5305 63.1375 41.5266C63.3148 41.4148 63.5333 41.4187 63.7004 41.5241C63.7595 41.5613 63.8122 41.6102 63.8546 41.6719C64.0204 41.9122 63.9587 42.2399 63.7197 42.4057L63.7222 42.4096Z" fill="#FFB69F"/>
<path d="M49.0362 44.6587C48.9154 45.4002 48.8858 46.1649 49.0491 46.8435C49.2663 47.7432 49.8472 48.2367 50.315 48.6338C50.6556 48.923 50.8651 49.1106 50.8792 49.3137C50.8946 49.5116 50.7687 49.9139 50.0824 50.703C49.8909 50.9241 49.9153 51.257 50.1351 51.4472C50.2353 51.5346 50.3574 51.577 50.4808 51.577C50.6286 51.577 50.7751 51.5153 50.8792 51.3958C51.6516 50.5051 51.9755 49.8381 51.9305 49.234C51.8804 48.5798 51.4113 48.1814 50.9962 47.8293C50.5913 47.4861 50.2096 47.161 50.0734 46.5955C49.9256 45.9811 49.9886 45.2229 50.1415 44.4826C49.711 44.4723 49.3357 44.552 49.0349 44.6587H49.0362Z" fill="black"/>
<path d="M50.8289 41.06C50.5667 40.9289 50.2506 41.0369 50.122 41.2965C50.1195 41.3016 50.0655 41.4096 49.9845 41.5934C49.8175 41.97 49.5283 42.673 49.2957 43.5032C49.6401 43.4402 50.0154 43.4132 50.4138 43.4467C50.6413 42.7115 50.9073 42.0856 51.0654 41.7695C51.095 41.7116 51.1104 41.6499 51.1168 41.5895C51.1399 41.3775 51.032 41.1628 50.8289 41.0613V41.06Z" fill="black"/>
<path d="M40.6899 38.3586C40.7991 38.3586 40.9083 38.3251 41.0022 38.2557C41.0703 38.2069 42.6897 37.0528 44.9658 38.0411C45.2318 38.1568 45.5441 38.0347 45.6598 37.7674C45.7767 37.5 45.6534 37.189 45.386 37.0721C42.5329 35.8305 40.4585 37.3432 40.3724 37.4088C40.1398 37.5823 40.0935 37.9113 40.2657 38.1439C40.3686 38.284 40.5279 38.3573 40.6899 38.3573V38.3586Z" fill="#441D39"/>
<path d="M59.693 37.0888C59.693 37.0888 59.6814 37.0811 59.6711 37.0734C59.7444 37.171 59.8164 37.2674 59.8883 37.3613C59.8549 37.2546 59.7907 37.1582 59.693 37.0875V37.0888Z" fill="black"/>
<path d="M54.6729 36.8766C54.4082 36.9987 54.2925 37.3136 54.4159 37.5784C54.5393 37.8418 54.8541 37.9575 55.1176 37.8341C57.3629 36.7918 59.008 37.8997 59.0838 37.9511C59.1763 38.0166 59.283 38.0475 59.3871 38.0475C59.5529 38.0475 59.7148 37.9704 59.8176 37.8251C59.9166 37.685 59.9372 37.5141 59.8896 37.3625C59.8176 37.2673 59.7457 37.1722 59.6724 37.0746C59.4334 36.9126 57.3834 35.6171 54.6742 36.8766H54.6729Z" fill="#441D39"/>
<path d="M55.155 64.163C53.6243 65.0203 51.8983 65.7297 50.4177 65.6924C48.6248 65.6475 46.7497 64.8905 45.1046 63.9574C42.3337 62.3882 40.2092 60.3215 40.2092 60.3215L40.2504 63.8584L40.2645 65.0267C40.2645 65.0267 41.0459 65.767 42.2514 66.5972C44.0122 67.8105 46.679 69.2152 49.1415 68.7911C50.5989 68.5405 52.1026 67.7488 53.4906 66.7707C54.6255 65.9713 55.6806 65.0473 56.57 64.19C58.1624 62.6542 59.2163 61.3343 59.2163 61.3343C59.2163 61.3343 57.3977 62.9061 55.155 64.1618V64.163Z" fill="#FF9988"/>
<path d="M43.074 45.1406C43.804 45.1406 44.3965 44.3887 44.3965 43.4608C44.3965 42.5329 43.804 41.781 43.074 41.781C42.344 41.781 41.7502 42.5329 41.7502 43.4608C41.7502 44.3887 42.344 45.1406 43.074 45.1406Z" fill="black"/>
<path d="M56.3657 45.1291C57.0957 45.1291 57.6882 44.3772 57.6882 43.4493C57.6882 42.5214 57.097 41.7695 56.3657 41.7695C55.6344 41.7695 55.0432 42.5214 55.0432 43.4493C55.0432 44.3772 55.6357 45.1291 56.3657 45.1291Z" fill="black"/>
<path d="M50.1438 59.4875C50.2222 59.49 50.298 59.4926 50.3752 59.4926C54.385 59.4926 55.8155 54.8864 55.8759 54.6872C55.9286 54.5137 55.8874 54.3273 55.7692 54.1898C55.6523 54.0536 55.4762 53.988 55.2924 54.0125C55.2667 54.0163 52.6538 54.3993 50.1168 54.4057H50.0706C47.5503 54.4057 45.0428 54.0369 45.0171 54.033C44.8423 54.0099 44.6611 54.0729 44.5429 54.2078C44.4246 54.3428 44.3822 54.5278 44.4323 54.7001C44.4452 54.7463 45.7921 59.2986 50.1451 59.4875H50.1438Z" fill="#FF7E68"/>
<path d="M63.8571 41.6769C63.8147 41.6152 63.762 41.5664 63.7029 41.5291C63.5358 41.4237 63.3173 41.4199 63.14 41.5317C63.1348 41.5355 63.1284 41.5381 63.122 41.542L61.0554 42.966C61.0155 42.993 60.9821 43.0264 60.9525 43.0624C60.815 43.1421 60.7122 43.2809 60.6904 43.4505C60.432 45.5069 58.6263 47.3473 56.7473 47.472C55.7461 47.5362 54.8889 47.2432 54.1987 46.598C53.3955 45.8449 52.8762 44.6162 52.8762 43.4672C52.8762 43.1755 52.6398 42.939 52.348 42.939C52.0563 42.939 51.8198 43.1755 51.8198 43.4672C51.8198 43.5765 51.8249 43.6921 51.8339 43.8104C51.3391 43.5945 50.861 43.4826 50.4112 43.4467C50.0128 43.4145 49.6375 43.4402 49.2931 43.5032C48.8574 43.5842 48.4731 43.7243 48.1582 43.8849C48.1646 43.7782 48.1698 43.6729 48.1698 43.5726C48.1698 43.2809 47.9333 43.0444 47.6416 43.0444C47.3498 43.0444 47.1133 43.2809 47.1133 43.5726C47.1133 44.7216 46.5954 45.9503 45.7909 46.7034C45.102 47.3486 44.246 47.6455 43.2448 47.5773C41.3633 47.454 39.5576 45.6122 39.3005 43.5559C39.298 43.5366 39.2915 43.5173 39.2877 43.4994C39.2902 43.34 39.2221 43.1806 39.0872 43.0739L37.2712 41.6538L37.0617 41.4893C36.8329 41.3106 36.5 41.3492 36.3214 41.5805C36.3021 41.6049 36.2867 41.6319 36.2726 41.6589C36.1543 41.8813 36.207 42.1614 36.4126 42.3221L38.2698 43.7744C38.6284 46.3063 40.8119 48.4757 43.1793 48.6312C43.2911 48.6389 43.4016 48.6428 43.5122 48.6428C44.6637 48.6428 45.697 48.2431 46.517 47.4745C47.2226 46.8139 47.6634 45.9952 47.9127 45.2023C48.0271 45.1997 48.1415 45.1637 48.2379 45.0853C48.2662 45.0622 48.5579 44.8308 49.0386 44.6612C49.3393 44.5558 49.7146 44.4748 50.1452 44.4851C50.7017 44.498 51.3507 44.6638 52.055 45.1264C52.0704 45.1367 52.0871 45.1444 52.1038 45.1534C52.3557 45.9284 52.794 46.724 53.4816 47.3691C54.3016 48.1364 55.3349 48.5374 56.4877 48.5374C56.5969 48.5374 56.7088 48.5335 56.8206 48.5258C59.1442 48.3729 61.2931 46.2767 61.7095 43.8027L63.726 42.4133C63.9651 42.2476 64.0268 41.9198 63.861 41.6795L63.8571 41.6769Z" fill="black"/>
</g>
<defs>
<clipPath id="clip0_5283_69971">
  <rect width="100" height="100" fill="white"/>
</clipPath>
</defs>
</svg>
