<svg width="20" height="20" viewBox="0 0 100 100" fill="none" xmlns="http://www.w3.org/2000/svg">
<g clip-path="url(#clip0_5283_69974)">
<path d="M27.6189 77.9744H27.6202C27.6721 77.9549 27.6994 77.9445 27.6994 77.9445H27.7007L31.8477 76.4087C32.2666 76.253 32.731 76.2712 33.137 76.4593L33.7259 76.7317C33.7259 76.7317 38.0078 75.1712 40.6047 73.04C40.5554 72.8895 40.5113 72.752 40.4737 72.6327C40.3881 72.3642 40.5373 72.0775 40.8058 71.9919C41.0613 71.9089 41.3272 72.0399 41.4284 72.2799C41.6399 72.0568 41.8292 71.8285 41.9875 71.5963C42.6426 70.6403 42.8799 68.9332 42.9344 67.2599L42.8618 67.3235C42.8618 67.3235 41.5763 67.1808 40.6268 66.348C39.6773 65.5152 39.0624 63.9924 39.0624 63.9924C39.0624 63.9924 38.6006 64.5437 37.9832 64.7408C37.367 64.9393 36.6847 64.6085 36.6847 64.6085C36.6847 64.6085 37.559 61.9117 35.4706 59.7196C33.4004 57.5468 27.7448 54.1924 27.1805 49.8534C26.4489 44.2225 28.4387 31.4871 34.2772 24.76C37.1128 21.4925 40.3648 18.81 43.4935 17.6127C47.2474 16.1768 51.004 16.5737 51.004 16.5737C51.004 16.5737 50.598 15.7306 50.6045 15.1546C50.611 14.5774 50.9625 14.017 50.9625 14.017C50.9625 14.017 54.7087 16.0354 55.3884 16.2481C56.9177 16.7255 59.8 17.3286 61.232 19.6298C63.0584 22.5678 68.7464 24.8443 69.9113 29.5154C71.5626 36.1425 68.3249 44.9878 68.3249 44.9878L68.1938 45.1033C68.3132 45.1305 68.4325 45.1668 68.5493 45.2148C69.7932 45.7259 70.7881 47.3305 70.7804 47.8999C70.7155 53.5607 66.0432 53.824 66.0432 53.824C66.0432 53.824 65.9602 55.8164 64.7836 58.041C63.6071 60.2644 61.3371 62.7199 61.3371 62.7199C61.3371 62.7199 60.9518 69.6129 61.9986 71.6884C62.0869 71.8648 62.214 72.0451 62.3696 72.2293C62.4527 71.975 62.7173 71.8246 62.9793 71.8907C63.253 71.9595 63.4177 72.2371 63.349 72.5108C63.3438 72.5289 63.2971 72.7144 63.2102 73.0322C65.6852 75.0649 70.6714 77.1857 70.6714 77.1857C71.2473 75.7653 72.1553 76.6046 72.1553 76.6046L76.6046 78.4452C76.6046 78.4452 82.6065 80.7762 86.878 83.7571C95.0254 74.8612 99.9974 63.0104 99.9974 49.9974C100 22.3862 77.6138 0 50 0C22.3862 0 0 22.3862 0 50C0 63.9353 5.70228 76.5397 14.8991 85.6068C18.6115 81.4884 26.7252 78.3155 27.6189 77.9757V77.9744Z" fill="white"/>
<path d="M42.8889 66.959L42.7177 62.5733C42.7177 62.5733 41.2286 60.8533 40.1727 58.6546C39.1168 56.456 38.4967 53.7786 38.4967 53.7786C38.4967 53.7786 37.8261 53.7553 36.9635 53.4154C36.1022 53.0743 35.0489 52.4179 35.0489 52.4179C35.0489 52.4179 35.0048 50.5773 35.6741 48.5057C36.3435 46.4329 37.3202 45.1318 37.3202 45.1318C37.3202 45.1318 38.4526 45.7921 40.1571 44.9476C41.0962 44.482 42.4855 42.2366 42.4855 42.2366C42.4855 42.2366 44.5454 41.0147 46.1564 39.8031C44.5635 39.5489 43.5025 40.3038 43.4493 40.344C43.3585 40.4102 43.2521 40.4426 43.147 40.4426C42.9901 40.4426 42.8357 40.3713 42.7358 40.2364C42.5685 40.0107 42.6139 39.6929 42.8396 39.5242C42.9174 39.4659 44.6712 38.1869 47.1526 38.9963C47.3368 38.8316 47.5003 38.6733 47.6352 38.5241C49.9649 35.948 50.2243 31.7841 52.0183 30.0447C52.6136 29.4674 57.7932 28.6204 59.3926 31.4858C60.9919 34.3512 63.93 37.4838 64.8328 40.0703C65.3257 41.4842 65.2998 43.3936 65.7564 44.6739C65.9808 45.3031 67.1327 44.8594 68.1989 45.1059L68.3299 44.9904C68.3299 44.9904 71.5676 36.1439 69.9164 29.518C68.7515 24.847 63.0635 22.5705 61.2371 19.6324C59.8051 17.3313 56.9228 16.7281 55.3934 16.2508C54.7124 16.038 50.9676 14.0197 50.9676 14.0197C50.9676 14.0197 50.616 14.58 50.6095 15.1573C50.6031 15.7332 51.0091 16.5763 51.0091 16.5763C51.0091 16.5763 47.2525 16.1794 43.4986 17.6154C40.3698 18.8126 37.1179 21.4951 34.2823 24.7627C28.4451 31.4897 26.454 44.2251 27.1856 49.8561C27.7498 54.195 33.4041 57.5495 35.4757 59.7222C37.5654 61.9144 36.6898 64.6112 36.6898 64.6112C36.6898 64.6112 37.3721 64.9406 37.9883 64.7435C38.6044 64.545 39.0675 63.995 39.0675 63.995C39.0675 63.995 39.681 65.5179 40.6319 66.3506C41.5814 67.1834 42.8669 67.3261 42.8669 67.3261L42.9395 67.2625C42.9421 67.1769 42.9447 67.0913 42.946 67.0057C42.911 66.9759 42.8915 66.9603 42.8915 66.9603L42.8889 66.959Z" fill="#441D39"/>
<path d="M73.9585 93.8969C78.8111 91.2429 83.1748 87.808 86.882 83.7609C82.6105 80.7801 76.6086 78.4491 76.6086 78.4491C76.6086 78.4491 74.7653 86.2398 73.9585 93.8969Z" fill="#FFBC67"/>
<path d="M27.7007 77.9446C27.7007 77.9446 27.6722 77.955 27.6216 77.9744L27.7033 77.9446H27.702H27.7007Z" fill="#FFBC67"/>
<path d="M36.6524 96.01C36.5084 93.727 36.2153 89.8693 35.7224 86.415C35.677 86.0985 35.6303 85.7858 35.5823 85.4758C35.6523 86.0258 35.7224 86.6069 35.7924 87.2231C36.0791 89.7811 36.3774 92.902 36.6524 96.0087V96.01Z" fill="#FFBC67"/>
<path d="M30.0266 94.255C29.2301 86.367 27.619 77.977 27.619 77.9757C26.7253 78.3169 18.6116 81.4884 14.8992 85.6069C19.2809 89.9264 24.4553 93.4429 30.1848 95.9192C30.1355 95.3692 30.0836 94.8127 30.0266 94.255Z" fill="#FFBC67"/>
<path d="M36.8482 98.2515C37.2204 98.3526 37.594 98.4486 37.9689 98.542C37.3748 98.2969 36.9779 98.1179 36.8313 98.0504C36.8365 98.1179 36.843 98.184 36.8482 98.2515Z" fill="#C1735C"/>
<path d="M52.414 91.8461C52.414 91.8461 52.4244 91.8461 52.4295 91.8461C56.1861 91.8097 60.7443 78.6359 62.3618 72.2617C62.3644 72.2513 62.3696 72.2409 62.3735 72.2305C62.2166 72.0463 62.0907 71.8647 62.0025 71.6896C60.9544 69.6142 61.341 62.7211 61.341 62.7211C61.341 62.7211 63.611 60.2669 64.7875 58.0423C65.964 55.819 66.047 53.8253 66.047 53.8253C66.047 53.8253 70.7194 53.5619 70.7842 47.9012C70.7907 47.3317 69.7971 45.7284 68.5531 45.2161C68.4364 45.1681 68.3184 45.1317 68.1977 45.1045C67.1315 44.858 65.9796 45.303 65.7552 44.6725C65.2986 43.391 65.3258 41.4828 64.8316 40.069C63.9301 37.4837 60.992 34.3498 59.3914 31.4844C57.792 28.619 52.6124 29.466 52.0171 30.0433C50.2231 31.7828 49.9637 35.9453 47.634 38.5228C47.4991 38.6719 47.3356 38.8302 47.1514 38.9949C47.3266 39.052 47.5056 39.1194 47.6872 39.1986C47.9453 39.3101 48.0646 39.6111 47.9518 39.8692C47.8389 40.1273 47.538 40.2467 47.2799 40.1338C46.8829 39.9613 46.5055 39.8575 46.1552 39.8017C44.5442 41.0133 42.4843 42.2352 42.4843 42.2352C42.4843 42.2352 41.0937 44.4806 40.1559 44.9462C38.4514 45.7907 37.319 45.1304 37.319 45.1304C37.319 45.1304 36.3423 46.4302 35.6729 48.5043C35.0036 50.5772 35.0477 52.4165 35.0477 52.4165C35.0477 52.4165 36.101 53.0729 36.9623 53.4141C37.8236 53.7539 38.4955 53.7773 38.4955 53.7773C38.4955 53.7773 39.1169 56.4546 40.1715 58.6532C41.2273 60.8519 42.7165 62.5719 42.7165 62.5719C42.7165 62.5719 47.7754 67.0679 52.4282 67.1768C55.9565 67.2598 60.9376 63.192 60.9376 63.192C60.9376 63.192 55.8177 69.2575 51.1934 70.0111C47.442 70.6221 43.4455 67.422 42.9409 67.003C42.9396 67.0886 42.937 67.1742 42.9344 67.2598C42.8799 68.9332 42.6425 70.6402 41.9875 71.5962C41.8292 71.8284 41.6398 72.0567 41.4284 72.2798C41.4349 72.2941 41.4427 72.3084 41.4479 72.3239C44.4365 81.7322 49.14 91.8448 52.4127 91.8448L52.414 91.8461ZM52.1792 44.0668C52.3128 43.819 52.6228 43.7269 52.8706 43.8579C53.1196 43.9915 53.213 44.3003 53.0794 44.5493C52.6838 45.2874 51.7083 47.7416 52.0625 49.1114C52.1909 49.6069 52.5567 49.8975 52.9432 50.2049C53.3518 50.5292 53.8136 50.8963 53.8603 51.5124C53.9031 52.0741 53.5853 52.6863 52.8317 53.4984C52.7318 53.606 52.5943 53.6618 52.4581 53.6618C52.3336 53.6618 52.209 53.6164 52.1104 53.5256C51.9042 53.3336 51.8912 53.0106 52.0845 52.8031C52.7681 52.0663 52.8537 51.7265 52.8433 51.5903C52.8304 51.4177 52.5891 51.2271 52.3102 51.0052C51.8549 50.6433 51.2893 50.1945 51.0753 49.3669C50.607 47.5548 51.8277 44.7257 52.1805 44.0668H52.1792ZM45.6221 47.7663C44.9151 47.7663 44.3431 47.0398 44.3431 46.1409C44.3431 45.242 44.9164 44.5169 45.6221 44.5169C46.3277 44.5169 46.9011 45.2446 46.9011 46.1409C46.9011 47.0373 46.329 47.7663 45.6221 47.7663ZM57.5572 56.1018C57.5001 56.3197 56.1251 61.3474 52.2324 61.3474C52.1571 61.3474 52.0819 61.3461 52.0067 61.3422C47.7857 61.1347 46.5314 56.3236 46.4795 56.1186C46.4367 55.9513 46.4834 55.7736 46.6001 55.6477C46.7169 55.5206 46.8894 55.4571 47.0593 55.4908C47.084 55.4947 49.5045 55.8994 51.9366 55.8994H51.9833C54.4349 55.8942 56.954 55.4726 56.9787 55.4687C57.1499 55.4363 57.3237 55.4999 57.4404 55.627C57.5572 55.7554 57.6013 55.9344 57.5572 56.1018ZM58.6325 47.7663C57.9256 47.7663 57.3535 47.0386 57.3535 46.1409C57.3535 45.2433 57.9269 44.5169 58.6325 44.5169C59.3382 44.5169 59.9115 45.2446 59.9115 46.1409C59.9115 47.0373 59.3382 47.7663 58.6325 47.7663ZM60.7261 40.3284C60.6249 40.3284 60.5212 40.2973 60.4317 40.235C60.3616 40.1857 58.77 39.1117 56.596 40.1221C56.3392 40.2402 56.0369 40.1299 55.9189 39.8731C55.7995 39.6175 55.9111 39.314 56.1666 39.1947C58.8984 37.9261 60.935 39.34 61.0219 39.4009C61.2515 39.5644 61.306 39.8822 61.1425 40.1131C61.0426 40.2531 60.8857 40.3284 60.7261 40.3284Z" fill="#C1735C"/>
<path d="M70.6739 77.1883C70.6739 77.1883 65.6889 75.0674 63.2127 73.0348C62.4097 76.0053 58.2122 90.7124 53.4412 92.6529C53.9886 93.1705 54.3402 94.1161 54.3402 95.242C54.3402 96.962 53.5204 98.2592 52.4333 98.2592C51.3463 98.2592 50.5265 96.962 50.5265 95.242C50.5265 94.1278 50.8716 93.1899 51.4099 92.6685C46.6558 90.8473 41.8564 76.9081 40.6046 73.04C38.0077 75.1699 33.7258 76.7317 33.7258 76.7317C33.7258 76.7317 34.687 78.5062 35.5808 85.4771C35.6287 85.7858 35.6754 86.0997 35.7208 86.4162C36.2138 89.8692 36.5056 93.727 36.6509 96.0112C36.7119 96.6948 36.7715 97.3758 36.8286 98.0517C36.9752 98.1191 37.3721 98.2981 37.9662 98.5433C41.8201 99.4954 45.8503 100.001 49.9986 100.001C56.1302 100.001 62.0037 98.8974 67.431 96.8777C67.7929 92.1496 68.3338 87.0739 69.1342 83.2499C69.4351 81.4857 70.2251 78.2921 70.6726 77.1909L70.6739 77.1883Z" fill="#C1735C"/>
<path d="M36.6523 96.01C36.3773 92.9033 36.0789 89.7824 35.7922 87.2244C35.7235 86.6082 35.6535 86.0271 35.5821 85.4771C34.6884 78.5062 33.7272 76.7317 33.7272 76.7317L33.1383 76.4593C32.7323 76.2712 32.2679 76.2531 31.8489 76.4087L27.7019 77.9446L27.6202 77.9744H27.6189C27.6189 77.9744 29.23 86.367 30.0264 94.2549C30.0822 94.8127 30.1354 95.3692 30.1847 95.9192C32.3314 96.8467 34.5574 97.6288 36.8481 98.2528C36.8429 98.1853 36.8365 98.1192 36.8313 98.0517C36.7729 97.3759 36.7132 96.6936 36.6536 96.0113L36.6523 96.01Z" fill="#FDEBD9"/>
<path d="M72.1579 76.6085C72.1579 76.6085 71.2499 75.7693 70.674 77.1897C70.2277 78.2909 69.4378 81.4845 69.1355 83.2486C68.3352 87.0727 67.7943 92.1484 67.4324 96.8765C69.6894 96.0373 71.8686 95.0398 73.9571 93.897C74.7626 86.2399 76.6071 78.4492 76.6071 78.4492L72.1579 76.6085Z" fill="#FDEBD9"/>
<path d="M52.309 51.004C52.5879 51.2258 52.8292 51.4177 52.8422 51.589C52.8525 51.7265 52.7682 52.0663 52.0833 52.8018C51.8913 53.0081 51.903 53.331 52.1093 53.5243C52.2079 53.6151 52.3324 53.6605 52.4569 53.6605C52.5944 53.6605 52.7306 53.6047 52.8305 53.4971C53.5841 52.6851 53.9019 52.0728 53.8591 51.5111C53.8124 50.895 53.3506 50.5279 52.942 50.2036C52.5555 49.8962 52.1897 49.6056 52.0613 49.1101C51.7072 47.7403 52.6826 45.2861 53.0782 44.548C53.2118 44.299 53.1172 43.9903 52.8694 43.8567C52.6216 43.7256 52.3116 43.8177 52.178 44.0655C51.8252 44.7231 50.6046 47.5535 51.0728 49.3657C51.2869 50.1919 51.8524 50.6421 52.3077 51.004H52.309Z" fill="#A5503C"/>
<path d="M56.9774 55.4675C56.9514 55.4714 54.4337 55.8929 51.982 55.8981H51.9353C49.5045 55.8981 47.0827 55.4934 47.058 55.4895C46.8881 55.4558 46.7143 55.5193 46.5989 55.6465C46.4821 55.7736 46.4367 55.95 46.4782 56.1173C46.5301 56.3223 47.7845 61.1334 52.0054 61.341C52.0819 61.3449 52.1572 61.3462 52.2311 61.3462C56.1238 61.3462 57.4975 56.3184 57.5559 56.1005C57.6 55.9318 57.5559 55.7541 57.4392 55.6257C57.3224 55.4973 57.1486 55.435 56.9774 55.4675Z" fill="#A5503C"/>
<path d="M42.8398 39.5229C42.6154 39.6915 42.57 40.0093 42.7361 40.235C42.836 40.3699 42.9903 40.4413 43.1473 40.4413C43.2523 40.4413 43.3587 40.4088 43.4495 40.3427C43.504 40.3025 44.5638 39.5488 46.1567 39.8018C46.5069 39.8576 46.8844 39.9613 47.2813 40.1338C47.5394 40.2467 47.8404 40.1274 47.9532 39.8692C48.0661 39.6111 47.9467 39.3102 47.6886 39.1986C47.5057 39.1195 47.328 39.052 47.1529 38.9949C44.6714 38.1855 42.919 39.4645 42.8398 39.5229Z" fill="#270B1F"/>
<path d="M61.1411 40.1132C61.3046 39.8836 61.2514 39.5645 61.0205 39.401C60.9336 39.3401 58.8971 37.9262 56.1653 39.1948C55.9097 39.3141 55.7982 39.6177 55.9175 39.8732C56.0368 40.1287 56.3391 40.2403 56.5946 40.1222C58.7686 39.1118 60.359 40.1858 60.4303 40.2351C60.5198 40.2974 60.6223 40.3285 60.7248 40.3285C60.8843 40.3285 61.0413 40.2533 61.1411 40.1132Z" fill="#441D39"/>
<path d="M42.9422 67.0043C43.4468 67.4233 47.442 70.6234 51.1947 70.0124C55.819 69.2588 60.9389 63.1933 60.9389 63.1933C60.9389 63.1933 55.9578 67.2624 52.4295 67.1781C47.7754 67.0692 42.7178 62.5732 42.7178 62.5732L42.889 66.9589C42.889 66.9589 42.9085 66.9758 42.9435 67.0043H42.9422Z" fill="#A5503C"/>
<path d="M45.622 44.5182C44.9151 44.5182 44.343 45.2459 44.343 46.1422C44.343 47.0386 44.9164 47.7676 45.622 47.7676C46.3277 47.7676 46.901 47.0411 46.901 46.1422C46.901 45.2433 46.329 44.5182 45.622 44.5182Z" fill="#441D39"/>
<path d="M58.6325 44.5182C57.9256 44.5182 57.3535 45.2459 57.3535 46.1422C57.3535 47.0386 57.9269 47.7676 58.6325 47.7676C59.3382 47.7676 59.9115 47.0398 59.9115 46.1422C59.9115 45.2446 59.3382 44.5182 58.6325 44.5182Z" fill="#441D39"/>
<path d="M51.4114 92.6698C50.8731 93.1912 50.528 94.1278 50.528 95.2433C50.528 96.9634 51.3478 98.2605 52.4348 98.2605C53.5218 98.2605 54.3416 96.9634 54.3416 95.2433C54.3416 94.1174 53.9901 93.1718 53.4427 92.6542C58.2149 90.7137 62.4112 76.0066 63.2142 73.0361C63.2998 72.7183 63.3478 72.5328 63.353 72.5147C63.423 72.241 63.257 71.9634 62.9833 71.8946C62.7225 71.8285 62.4566 71.9789 62.3736 72.2332C62.3697 72.2435 62.3645 72.2526 62.3619 72.2643C60.7431 78.6385 56.1862 91.8111 52.4296 91.8487C52.4245 91.8487 52.4193 91.8487 52.4141 91.8487C49.1401 91.8487 44.4379 81.7361 41.4493 72.3279C41.4441 72.3123 41.4363 72.298 41.4298 72.2838C41.3286 72.0438 41.0627 71.9128 40.8072 71.9958C40.5387 72.0814 40.3895 72.3681 40.4751 72.6366C40.5127 72.7559 40.5568 72.8934 40.6061 73.0439C41.8566 76.912 46.6573 90.8512 51.4114 92.6724V92.6698Z" fill="white"/>
</g>
<defs>
<clipPath id="clip0_5283_69974">
<rect width="100" height="100" fill="white"/>
</clipPath>
</defs>
</svg>
