<?xml version="1.0" encoding="utf-8"?>
<!-- Generator: Adobe Illustrator 24.0.2, SVG Export Plug-In . SVG Version: 6.00 Build 0)  -->
<svg version="1.1" id="Layer_1" xmlns="http://www.w3.org/2000/svg" xmlns:xlink="http://www.w3.org/1999/xlink" x="0px" y="0px"
	 viewBox="0 0 240 186" style="enable-background:new 0 0 240 186;" xml:space="preserve">
<style type="text/css">
	.st0{fill:none;stroke:#FFFFFF;stroke-width:10;stroke-linecap:round;stroke-miterlimit:10;}
	.st1{fill:#FFFFFF;}
</style>
<g>
	<line class="st0" x1="19" y1="24" x2="19" y2="158"/>
	<polyline class="st0" points="215,158 215,129 19,129 	"/>
	<path class="st1" d="M90,60.8V80H50.3c-5.1,0-9.3,4.2-9.3,9.3v13c0,3.1,2.5,5.7,5.7,5.7H222V72c0-18.2-14.8-33-33-33h-77.2
		C99.8,39,90,48.8,90,60.8z"/>
	<circle class="st1" cx="62" cy="45" r="21"/>
</g>
<path class="st1" d="M565.2,74.9c4.1-0.5,7.3-1.2,7.3-1.6c0-1,9-11,9-19s-13-7-18-8c-2-0.4-5.2,0.2-8.2,1l-12.6-35.2
	c-2.5-7.1-9.2-11.8-16.7-11.8h-64.5h-64.5c-7.5,0-14.2,4.7-16.7,11.8l-12.6,35.2c-3-0.8-6.2-1.4-8.2-1c-5,1-18,0-18,8s9,18,9,19
	c0,0.4,3.2,1.1,7.3,1.6l-0.4,1.1c-5.3,14.7-7.9,30.2-7.9,45.8v16.4v19v14c0,7.7,6.3,14,14,14h15c7.7,0,14-6.3,14-14v-14h69h69v14
	c0,7.7,6.3,14,14,14h15c7.7,0,14-6.3,14-14v-14v-19v-16.4c0-15.6-2.7-31.1-7.9-45.8L565.2,74.9z M377.6,134.3c-7.2,0-13-5.8-13-13
	c0-7.2,5.8-13,13-13s13,5.8,13,13C390.6,128.5,384.7,134.3,377.6,134.3z M515.6,128.3h-53h-2h-53v-22h53h2h53V128.3z M462.6,77.3h-2
	h-77c-4.3,0-7.3-4.3-5.7-8.4l16.8-43.2c3.6-9.3,12.5-15.4,22.5-15.4h43.5h2H506c10,0,18.9,6.1,22.5,15.4l16.8,43.2
	c1.6,4-1.4,8.4-5.7,8.4H462.6z M545.6,134.3c-7.2,0-13-5.8-13-13c0-7.2,5.8-13,13-13s13,5.8,13,13
	C558.6,128.5,552.7,134.3,545.6,134.3z"/>
</svg>
